<?xml version="1.0" encoding="UTF-8"?>
<!DOCTYPE svg PUBLIC "-//W3C//DTD SVG 1.1//EN" "http://www.w3.org/Graphics/SVG/1.1/DTD/svg11.dtd">
<svg xmlns="http://www.w3.org/2000/svg" version="1.1" width="500px" height="500px" style="shape-rendering:geometricPrecision; text-rendering:geometricPrecision; image-rendering:optimizeQuality; fill-rule:evenodd; clip-rule:evenodd" xmlns:xlink="http://www.w3.org/1999/xlink">
<g><path style="opacity:1" fill="#fde503" d="M 228.5,-0.5 C 242.167,-0.5 255.833,-0.5 269.5,-0.5C 270.167,0.833333 270.833,0.833333 271.5,-0.5C 272.5,-0.5 273.5,-0.5 274.5,-0.5C 285.348,1.45124 296.348,3.28458 307.5,5C 332.241,11.4836 355.908,21.1503 378.5,34C 382.037,37.8526 386.37,40.5193 391.5,42C 396.053,46.0911 400.72,49.9244 405.5,53.5C 406.207,55.1344 407.373,56.4677 409,57.5C 409.483,58.448 409.649,59.448 409.5,60.5C 413.064,61.7376 416.398,63.4042 419.5,65.5C 467.598,110.684 494.265,166.35 499.5,232.5C 499.5,243.5 499.5,254.5 499.5,265.5C 498.662,265.842 498.328,266.508 498.5,267.5C 495.502,279.856 493.836,292.523 493.5,305.5C 481.361,356.979 456.028,400.479 417.5,436C 409.023,442.416 400.69,449.082 392.5,456C 384.592,460.784 376.592,465.284 368.5,469.5C 366.338,468.583 364.005,468.583 361.5,469.5C 361.5,470.5 361.5,471.5 361.5,472.5C 359.535,473.129 357.535,473.796 355.5,474.5C 354.228,474.43 353.062,474.097 352,473.5C 351.383,474.449 351.549,475.282 352.5,476C 350.527,476.495 348.527,476.662 346.5,476.5C 346.567,477.959 346.234,479.292 345.5,480.5C 340.895,483.146 335.895,484.813 330.5,485.5C 326.858,486.08 323.191,486.58 319.5,487C 319.833,487.333 320.167,487.667 320.5,488C 313.247,489.813 306.247,491.98 299.5,494.5C 288.182,497.238 276.849,498.904 265.5,499.5C 254.833,499.5 244.167,499.5 233.5,499.5C 147.098,491.527 80.598,451.194 34,378.5C 30.8223,372.145 27.6557,365.811 24.5,359.5C 24.6621,357.473 24.4955,355.473 24,353.5C 20.238,344.388 16.4047,336.054 12.5,328.5C 10.5275,325.916 9.52751,322.916 9.5,319.5C 10.0421,315.456 9.20878,311.789 7,308.5C 4.8282,295.126 3.16154,281.792 2,268.5C 1.32924,267.748 0.495904,267.414 -0.5,267.5C -0.5,254.833 -0.5,242.167 -0.5,229.5C 8.23405,145.496 47.9007,80.6626 118.5,35C 139.424,22.5425 161.757,13.3759 185.5,7.5C 199.634,5.81101 213.634,3.47767 227.5,0.5C 228.167,0.5 228.5,0.166667 228.5,-0.5 Z"/></g>
<g><path style="opacity:1" fill="#f7e54c" d="M 226.5,-0.5 C 226.833,-0.5 227.167,-0.5 227.5,-0.5C 227.5,-0.166667 227.5,0.166667 227.5,0.5C 213.634,3.47767 199.634,5.81101 185.5,7.5C 187.148,6.07346 189.148,5.24013 191.5,5C 203.27,2.96204 214.936,1.1287 226.5,-0.5 Z"/></g>
<g><path style="opacity:1" fill="#f9e961" d="M 405.5,53.5 C 410.414,57.2199 415.081,61.2199 419.5,65.5C 416.398,63.4042 413.064,61.7376 409.5,60.5C 409.649,59.448 409.483,58.448 409,57.5C 407.373,56.4677 406.207,55.1344 405.5,53.5 Z"/></g>
<g><path style="opacity:1" fill="#030201" d="M 118.5,232.5 C 121.382,250.709 114.048,262.542 96.5,268C 94.2115,268.822 91.8782,269.489 89.5,270C 80.1667,270.667 70.8333,270.667 61.5,270C 52.7675,267.226 44.1009,264.392 35.5,261.5C 32.4189,257.792 28.7523,254.792 24.5,252.5C 28.8547,247.313 34.188,243.48 40.5,241C 41.2106,239.745 42.044,238.579 43,237.5C 55.3281,248.434 69.4948,251.601 85.5,247C 87.6576,245.688 87.9909,244.022 86.5,242C 78.0393,237.635 69.0393,235.301 59.5,235C 52.2956,232.269 45.629,228.602 39.5,224C 31.7736,216.094 29.2736,206.594 32,195.5C 36.1015,186.394 42.9348,180.56 52.5,178C 77.5771,170.241 99.5771,175.241 118.5,193C 112.362,196.972 106.362,201.138 100.5,205.5C 92.7545,200.057 84.0878,197.057 74.5,196.5C 71.0439,196.818 67.7106,197.652 64.5,199C 63.9415,199.725 63.6082,200.558 63.5,201.5C 64.7065,203.449 66.3732,204.949 68.5,206C 80.8805,208.074 92.8805,211.407 104.5,216C 111.597,219.585 116.264,225.085 118.5,232.5 Z"/></g>
<g><path style="opacity:1" fill="#020101" d="M 184.5,178.5 C 193.982,201.418 203.316,224.418 212.5,247.5C 215.623,253.205 217.957,259.205 219.5,265.5C 207.42,265.812 195.42,265.479 183.5,264.5C 181.678,260.868 180.344,257.034 179.5,253C 169.151,252.168 158.817,252.334 148.5,253.5C 146.83,257.513 145.163,261.513 143.5,265.5C 134.766,266.135 126.433,265.468 118.5,263.5C 121.778,256.329 124.444,248.996 126.5,241.5C 131.409,229.413 136.576,217.413 142,205.5C 143.107,201.12 144.274,196.787 145.5,192.5C 146.885,191.426 148.051,190.093 149,188.5C 149.116,185.068 150.283,182.068 152.5,179.5C 163.146,178.501 173.813,178.168 184.5,178.5 Z"/></g>
<g><path style="opacity:1" fill="#010000" d="M 430.5,178.5 C 440.833,178.5 451.167,178.5 461.5,178.5C 461.5,207.5 461.5,236.5 461.5,265.5C 451.167,265.5 440.833,265.5 430.5,265.5C 430.5,236.5 430.5,207.5 430.5,178.5 Z"/></g>
<g><path style="opacity:1" fill="#d4c62b" d="M 184.5,178.5 C 173.813,178.168 163.146,178.501 152.5,179.5C 150.283,182.068 149.116,185.068 149,188.5C 148.051,190.093 146.885,191.426 145.5,192.5C 145.668,187.448 147.668,182.781 151.5,178.5C 162.66,177.176 173.66,177.176 184.5,178.5 Z"/></g>
<g><path style="opacity:1" fill="#eedc1e" d="M 163.5,213.5 C 165.516,217.862 167.683,222.196 170,226.5C 170.494,228.134 170.66,229.801 170.5,231.5C 166.167,231.5 161.833,231.5 157.5,231.5C 159.799,225.655 161.799,219.655 163.5,213.5 Z"/></g>
<g><path style="opacity:1" fill="#f7e215" d="M 223.5,178.5 C 223.5,207.833 223.5,237.167 223.5,266.5C 234.833,266.5 246.167,266.5 257.5,266.5C 257.5,257.833 257.5,249.167 257.5,240.5C 261.173,237.494 264.506,234.161 267.5,230.5C 268.757,232.679 270.257,234.679 272,236.5C 276.159,246.317 280.992,255.817 286.5,265C 297.833,265.667 309.167,265.667 320.5,265C 318.845,263.556 318.178,261.722 318.5,259.5C 320.104,260.287 320.771,261.62 320.5,263.5C 321.833,263.5 323.167,263.5 324.5,263.5C 324.739,261.533 324.406,259.699 323.5,258C 324.715,255.904 325.549,256.071 326,258.5C 327.166,254.179 328.333,249.845 329.5,245.5C 330.893,242.804 332.56,240.471 334.5,238.5C 331.019,247.407 327.686,256.407 324.5,265.5C 328.653,266.166 332.987,266.499 337.5,266.5C 342.222,266.492 346.555,265.825 350.5,264.5C 352.154,260.521 353.821,256.521 355.5,252.5C 365.5,251.167 375.5,251.167 385.5,252.5C 387.278,256.789 389.278,260.956 391.5,265C 403.167,265.667 414.833,265.667 426.5,265C 425.663,263.989 425.33,262.822 425.5,261.5C 426.496,261.586 427.329,261.252 428,260.5C 428.456,261.744 427.956,262.577 426.5,263C 427.448,263.483 428.448,263.649 429.5,263.5C 429.169,234.995 429.502,206.662 430.5,178.5C 430.5,207.5 430.5,236.5 430.5,265.5C 440.653,266.494 450.986,266.828 461.5,266.5C 459.735,267.461 457.735,267.795 455.5,267.5C 455.702,269.989 455.202,272.323 454,274.5C 452.062,272.022 449.895,271.855 447.5,274C 448.155,277.028 450.155,279.361 453.5,281C 452.944,281.383 452.611,281.883 452.5,282.5C 451.292,281.766 449.959,281.433 448.5,281.5C 448.5,280.5 448.5,279.5 448.5,278.5C 445.833,278.5 443.167,278.5 440.5,278.5C 439.833,280.167 439.167,281.833 438.5,283.5C 432.173,276.016 425.34,275.683 418,282.5C 414.793,290.767 417.293,296.434 425.5,299.5C 421.756,299.656 417.922,299.656 414,299.5C 411.341,302.386 408.507,302.719 405.5,300.5C 405.036,303.893 404.036,303.893 402.5,300.5C 404.333,295.362 405,290.028 404.5,284.5C 403.167,284.5 401.833,284.5 400.5,284.5C 400.819,289.363 400.486,294.03 399.5,298.5C 399.5,293.5 399.5,288.5 399.5,283.5C 401.5,283.5 403.5,283.5 405.5,283.5C 405.5,281.833 405.5,280.167 405.5,278.5C 398.5,278.5 391.5,278.5 384.5,278.5C 384.649,279.552 384.483,280.552 384,281.5C 378,276.167 372,276.167 366,281.5C 362.748,286.97 362.915,292.303 366.5,297.5C 362.972,299.675 359.305,300.008 355.5,298.5C 358.518,298.665 361.518,298.498 364.5,298C 361.946,293.051 359.779,287.885 358,282.5C 355.947,278.708 352.781,277.542 348.5,279C 347.536,280.725 346.869,282.559 346.5,284.5C 345.85,284.804 345.183,285.137 344.5,285.5C 343.828,284.051 343.161,282.718 342.5,281.5C 341.317,280.496 339.984,279.662 338.5,279C 332.843,278.501 327.176,278.334 321.5,278.5C 320.609,279.11 319.609,279.443 318.5,279.5C 315.713,278.523 312.713,278.19 309.5,278.5C 309.071,281.363 308.071,284.029 306.5,286.5C 305.651,284.106 304.651,281.773 303.5,279.5C 300.232,278.513 296.898,278.18 293.5,278.5C 293.5,285.167 293.5,291.833 293.5,298.5C 292.533,297.194 291.199,296.527 289.5,296.5C 291.463,292.087 291.963,287.42 291,282.5C 283.924,275.941 276.924,275.941 270,282.5C 267.078,290.649 269.578,296.316 277.5,299.5C 274.856,299.84 272.523,299.173 270.5,297.5C 270.594,298.972 269.594,300.138 267.5,301C 265.231,300.626 262.898,300.626 260.5,301C 263.063,301.763 263.063,302.263 260.5,302.5C 258.437,301.488 256.437,300.488 254.5,299.5C 260.554,300.236 264.887,297.903 267.5,292.5C 266.009,291.756 264.509,291.09 263,290.5C 261.254,293.81 258.754,294.81 255.5,293.5C 254.167,290.167 254.167,286.833 255.5,283.5C 256.446,283.013 257.446,282.68 258.5,282.5C 260.447,283.277 262.28,284.277 264,285.5C 265.395,285.22 266.562,284.553 267.5,283.5C 261.478,276.115 254.812,275.615 247.5,282C 245.359,285.679 245.026,289.512 246.5,293.5C 245.883,293.389 245.383,293.056 245,292.5C 244.818,289.774 244.318,287.107 243.5,284.5C 243.167,285.167 242.833,285.833 242.5,286.5C 241.777,284.31 240.61,282.31 239,280.5C 238.768,281.737 238.268,282.737 237.5,283.5C 237.5,283.167 237.5,282.833 237.5,282.5C 237.5,281.167 237.5,279.833 237.5,278.5C 231.5,278.5 225.5,278.5 219.5,278.5C 218.833,280.833 218.167,283.167 217.5,285.5C 217.5,284.167 217.5,282.833 217.5,281.5C 213.875,279.781 210.042,278.448 206,277.5C 196.042,279.582 192.875,285.249 196.5,294.5C 194.53,292.366 192.363,290.366 190,288.5C 188.908,291.044 188.241,293.711 188,296.5C 186.152,299.041 183.652,300.041 180.5,299.5C 187.337,296.319 188.004,292.153 182.5,287C 179.202,286.513 176.202,285.347 173.5,283.5C 176.31,282.259 178.977,282.592 181.5,284.5C 183.002,283.917 184.335,283.084 185.5,282C 179.203,276.353 172.869,276.186 166.5,281.5C 165.833,281.5 165.167,281.5 164.5,281.5C 163.128,280.488 161.795,279.488 160.5,278.5C 140.833,277.167 121.167,277.167 101.5,278.5C 100.833,278.5 100.5,278.833 100.5,279.5C 100.5,280.833 100.5,282.167 100.5,283.5C 99.5222,283.811 98.8555,284.478 98.5,285.5C 98.8457,286.696 99.3457,286.696 100,285.5C 100.226,288.451 101.392,290.951 103.5,293C 101.571,294.694 100.571,296.861 100.5,299.5C 96.6681,299.777 92.8348,300.11 89,300.5C 86.7047,300.453 84.8714,299.787 83.5,298.5C 89.4555,300.508 94.7888,299.508 99.5,295.5C 100.601,288.095 97.2679,284.595 89.5,285C 89.0426,284.586 88.7093,284.086 88.5,283.5C 92.2654,283.685 95.9321,283.185 99.5,282C 95.2545,277.458 90.2545,276.458 84.5,279C 79.9584,281.785 79.2917,285.285 82.5,289.5C 82.5,290.167 82.5,290.833 82.5,291.5C 81.713,293.104 80.3797,293.771 78.5,293.5C 77.1017,288.571 75.1017,283.904 72.5,279.5C 69.9135,278.52 67.2469,278.187 64.5,278.5C 61.8617,285.049 59.5284,291.716 57.5,298.5C 57.1667,298.5 56.8333,298.5 56.5,298.5C 56.5,291.833 56.5,285.167 56.5,278.5C 53.1016,278.18 49.7683,278.513 46.5,279.5C 43.4117,288.984 41.745,288.65 41.5,278.5C 38.1667,278.5 34.8333,278.5 31.5,278.5C 31.5,284.833 31.5,291.167 31.5,297.5C 30.346,291.013 30.1794,284.346 31,277.5C 34.3936,276.544 37.8936,276.211 41.5,276.5C 41.3505,275.448 41.5172,274.448 42,273.5C 43.073,274.28 44.2396,274.113 45.5,273C 44.5419,271.853 44.8753,270.853 46.5,270C 44.0795,269.978 41.7461,268.978 39.5,267C 39.9574,266.586 40.2907,266.086 40.5,265.5C 39.0663,264.77 37.8996,263.77 37,262.5C 35.8932,263.712 35.3932,263.379 35.5,261.5C 44.1009,264.392 52.7675,267.226 61.5,270C 70.8333,270.667 80.1667,270.667 89.5,270C 91.8782,269.489 94.2115,268.822 96.5,268C 114.048,262.542 121.382,250.709 118.5,232.5C 120.28,236.727 121.114,241.394 121,246.5C 121.333,246.833 121.667,247.167 122,247.5C 123.531,246.041 125.031,244.041 126.5,241.5C 124.444,248.996 121.778,256.329 118.5,263.5C 117.733,264.172 117.066,265.005 116.5,266C 125.676,266.824 134.676,266.657 143.5,265.5C 145.163,261.513 146.83,257.513 148.5,253.5C 158.817,252.334 169.151,252.168 179.5,253C 180.344,257.034 181.678,260.868 183.5,264.5C 189.128,265.829 195.128,266.496 201.5,266.5C 207.676,266.5 213.676,266.166 219.5,265.5C 217.957,259.205 215.623,253.205 212.5,247.5C 214.353,249.375 216.187,251.375 218,253.5C 218.317,251.699 218.984,251.366 220,252.5C 219.538,254.348 219.038,256.348 218.5,258.5C 218.488,260.881 219.488,262.548 221.5,263.5C 222.167,235.003 222.833,206.67 223.5,178.5 Z"/></g>
<g><path style="opacity:1" fill="#020101" d="M 425.5,261.5 C 425.33,262.822 425.663,263.989 426.5,265C 414.833,265.667 403.167,265.667 391.5,265C 389.278,260.956 387.278,256.789 385.5,252.5C 375.5,251.167 365.5,251.167 355.5,252.5C 353.821,256.521 352.154,260.521 350.5,264.5C 341.918,265.47 333.251,265.803 324.5,265.5C 327.686,256.407 331.019,247.407 334.5,238.5C 342.764,219.038 350.43,199.371 357.5,179.5C 368.819,178.334 380.152,178.168 391.5,179C 399.458,195.941 406.291,213.441 412,231.5C 417.34,241.176 421.84,251.176 425.5,261.5 Z"/></g>
<g><path style="opacity:1" fill="#eddb19" d="M 369.5,213.5 C 371.258,215.141 372.758,217.141 374,219.5C 374.113,223.543 375.279,227.209 377.5,230.5C 372.833,231.833 368.167,231.833 363.5,230.5C 365.799,224.909 367.799,219.243 369.5,213.5 Z"/></g>
<g><path style="opacity:1" fill="#030201" d="M 224.5,178.5 C 235.5,178.5 246.5,178.5 257.5,178.5C 257.168,188.19 257.502,197.856 258.5,207.5C 266.998,198.167 275.331,188.667 283.5,179C 293.849,178.168 304.183,178.334 314.5,179.5C 307.504,186.996 300.337,194.329 293,201.5C 291.634,203.37 290.467,205.37 289.5,207.5C 297.095,221.789 304.595,236.122 312,250.5C 314.188,253.567 316.355,256.567 318.5,259.5C 318.178,261.722 318.845,263.556 320.5,265C 309.167,265.667 297.833,265.667 286.5,265C 280.992,255.817 276.159,246.317 272,236.5C 270.257,234.679 268.757,232.679 267.5,230.5C 264.506,234.161 261.173,237.494 257.5,240.5C 256.507,248.65 256.174,256.983 256.5,265.5C 245.833,265.5 235.167,265.5 224.5,265.5C 224.5,236.5 224.5,207.5 224.5,178.5 Z"/></g>
<g><path style="opacity:1" fill="#766d00" d="M 118.5,263.5 C 126.433,265.468 134.766,266.135 143.5,265.5C 134.676,266.657 125.676,266.824 116.5,266C 117.066,265.005 117.733,264.172 118.5,263.5 Z"/></g>
<g><path style="opacity:1" fill="#756d00" d="M 183.5,264.5 C 195.42,265.479 207.42,265.812 219.5,265.5C 213.676,266.166 207.676,266.5 201.5,266.5C 195.128,266.496 189.128,265.829 183.5,264.5 Z"/></g>
<g><path style="opacity:1" fill="#746d04" d="M 223.5,178.5 C 223.833,178.5 224.167,178.5 224.5,178.5C 224.5,207.5 224.5,236.5 224.5,265.5C 235.167,265.5 245.833,265.5 256.5,265.5C 256.174,256.983 256.507,248.65 257.5,240.5C 257.5,249.167 257.5,257.833 257.5,266.5C 246.167,266.5 234.833,266.5 223.5,266.5C 223.5,237.167 223.5,207.833 223.5,178.5 Z"/></g>
<g><path style="opacity:1" fill="#756e00" d="M 350.5,264.5 C 346.555,265.825 342.222,266.492 337.5,266.5C 332.987,266.499 328.653,266.166 324.5,265.5C 333.251,265.803 341.918,265.47 350.5,264.5 Z"/></g>
<g><path style="opacity:1" fill="#8a8002" d="M 461.5,178.5 C 462.833,207.833 462.833,237.167 461.5,266.5C 450.986,266.828 440.653,266.494 430.5,265.5C 440.833,265.5 451.167,265.5 461.5,265.5C 461.5,236.5 461.5,207.5 461.5,178.5 Z"/></g>
<g><path style="opacity:1" fill="#090601" d="M 289.5,296.5 C 285.716,298.316 281.716,299.316 277.5,299.5C 269.578,296.316 267.078,290.649 270,282.5C 276.924,275.941 283.924,275.941 291,282.5C 291.963,287.42 291.463,292.087 289.5,296.5 Z"/></g>
<g><path style="opacity:1" fill="#0d0801" d="M 399.5,283.5 C 398.513,288.305 398.179,293.305 398.5,298.5C 396.167,298.5 393.833,298.5 391.5,298.5C 391.5,293.167 391.5,287.833 391.5,282.5C 388.941,282.198 386.607,282.532 384.5,283.5C 383.866,284.947 382.699,285.613 381,285.5C 373.64,280.506 370.64,282.506 372,291.5C 372.779,292.728 373.779,293.728 375,294.5C 377.806,292.398 380.973,291.398 384.5,291.5C 384.556,294.561 383.222,296.728 380.5,298C 375.78,299.824 371.114,299.657 366.5,297.5C 362.915,292.303 362.748,286.97 366,281.5C 372,276.167 378,276.167 384,281.5C 384.483,280.552 384.649,279.552 384.5,278.5C 391.5,278.5 398.5,278.5 405.5,278.5C 405.5,280.167 405.5,281.833 405.5,283.5C 403.5,283.5 401.5,283.5 399.5,283.5 Z"/></g>
<g><path style="opacity:1" fill="#070301" d="M 56.5,298.5 C 54.1667,298.5 51.8333,298.5 49.5,298.5C 49.665,295.15 49.4983,291.817 49,288.5C 47.8333,291.5 46.6667,294.5 45.5,297.5C 43.8333,298.833 42.1667,298.833 40.5,297.5C 39.6279,295.55 38.9612,293.55 38.5,291.5C 38.6309,290.624 38.2975,289.957 37.5,289.5C 36.5159,292.428 36.1826,295.428 36.5,298.5C 34.8333,298.5 33.1667,298.5 31.5,298.5C 31.5,298.167 31.5,297.833 31.5,297.5C 31.5,291.167 31.5,284.833 31.5,278.5C 34.8333,278.5 38.1667,278.5 41.5,278.5C 41.745,288.65 43.4117,288.984 46.5,279.5C 49.7683,278.513 53.1016,278.18 56.5,278.5C 56.5,285.167 56.5,291.833 56.5,298.5 Z"/></g>
<g><path style="opacity:1" fill="#0a0601" d="M 100.5,279.5 C 100.5,278.833 100.833,278.5 101.5,278.5C 108.167,278.5 114.833,278.5 121.5,278.5C 121.5,280.167 121.5,281.833 121.5,283.5C 119.5,283.5 117.5,283.5 115.5,283.5C 115.5,288.5 115.5,293.5 115.5,298.5C 112.833,298.5 110.167,298.5 107.5,298.5C 107.5,293.5 107.5,288.5 107.5,283.5C 105.735,282.539 103.735,282.205 101.5,282.5C 101.737,281.209 101.404,280.209 100.5,279.5 Z"/></g>
<g><path style="opacity:1" fill="#090502" d="M 160.5,278.5 C 161.795,279.488 163.128,280.488 164.5,281.5C 164.717,284.421 164.051,287.087 162.5,289.5C 161.876,289.917 161.543,290.584 161.5,291.5C 162.937,293.577 163.604,295.91 163.5,298.5C 161.5,298.5 159.5,298.5 157.5,298.5C 156.136,296.78 155.136,294.78 154.5,292.5C 153.675,291.614 152.675,291.281 151.5,291.5C 150.532,293.607 150.198,295.941 150.5,298.5C 148.167,298.5 145.833,298.5 143.5,298.5C 143.5,291.833 143.5,285.167 143.5,278.5C 149.167,278.5 154.833,278.5 160.5,278.5 Z"/></g>
<g><path style="opacity:1" fill="#060301" d="M 219.5,278.5 C 225.5,278.5 231.5,278.5 237.5,278.5C 237.5,279.833 237.5,281.167 237.5,282.5C 233.833,282.5 230.167,282.5 226.5,282.5C 226.5,283.833 226.5,285.167 226.5,286.5C 229.167,286.5 231.833,286.5 234.5,286.5C 234.5,288.167 234.5,289.833 234.5,291.5C 231.833,291.5 229.167,291.5 226.5,291.5C 226.5,293.833 226.5,296.167 226.5,298.5C 224.167,298.5 221.833,298.5 219.5,298.5C 219.5,291.833 219.5,285.167 219.5,278.5 Z"/></g>
<g><path style="opacity:1" fill="#060301" d="M 318.5,279.5 C 318.5,285.833 318.5,292.167 318.5,298.5C 316.167,298.5 313.833,298.5 311.5,298.5C 311.817,295.428 311.484,292.428 310.5,289.5C 309.741,292.157 309.074,294.823 308.5,297.5C 306.604,298.466 304.604,298.799 302.5,298.5C 300.236,285.387 299.236,285.387 299.5,298.5C 297.5,298.5 295.5,298.5 293.5,298.5C 293.5,291.833 293.5,285.167 293.5,278.5C 296.898,278.18 300.232,278.513 303.5,279.5C 304.651,281.773 305.651,284.106 306.5,286.5C 308.071,284.029 309.071,281.363 309.5,278.5C 312.713,278.19 315.713,278.523 318.5,279.5 Z"/></g>
<g><path style="opacity:1" fill="#090501" d="M 321.5,278.5 C 327.176,278.334 332.843,278.501 338.5,279C 339.984,279.662 341.317,280.496 342.5,281.5C 343.186,285.287 342.186,288.454 339.5,291C 335.848,291.499 332.182,291.665 328.5,291.5C 328.5,293.833 328.5,296.167 328.5,298.5C 326.167,298.5 323.833,298.5 321.5,298.5C 321.5,291.833 321.5,285.167 321.5,278.5 Z"/></g>
<g><path style="opacity:1" fill="#080501" d="M 355.5,298.5 C 355.5,297.5 355.5,296.5 355.5,295.5C 350.468,295.597 345.802,296.597 341.5,298.5C 341.5,297.5 341.5,296.5 341.5,295.5C 343.723,292.198 345.39,288.532 346.5,284.5C 346.869,282.559 347.536,280.725 348.5,279C 352.781,277.542 355.947,278.708 358,282.5C 359.779,287.885 361.946,293.051 364.5,298C 361.518,298.498 358.518,298.665 355.5,298.5 Z"/></g>
<g><path style="opacity:1" fill="#090501" d="M 440.5,278.5 C 443.167,278.5 445.833,278.5 448.5,278.5C 448.5,279.5 448.5,280.5 448.5,281.5C 449.959,281.433 451.292,281.766 452.5,282.5C 452.685,284.196 453.519,285.529 455,286.5C 455.497,283.854 455.664,281.187 455.5,278.5C 457.5,278.5 459.5,278.5 461.5,278.5C 461.5,285.167 461.5,291.833 461.5,298.5C 459.473,298.662 457.473,298.495 455.5,298C 453.097,295.318 450.597,292.818 448,290.5C 447.503,293.146 447.336,295.813 447.5,298.5C 445.167,298.5 442.833,298.5 440.5,298.5C 440.5,291.833 440.5,285.167 440.5,278.5 Z"/></g>
<g><path style="opacity:1" fill="#0a0501" d="M 217.5,285.5 C 217.5,287.5 217.5,289.5 217.5,291.5C 217.703,293.39 217.037,294.89 215.5,296C 208.597,301.041 202.263,300.541 196.5,294.5C 192.875,285.249 196.042,279.582 206,277.5C 210.042,278.448 213.875,279.781 217.5,281.5C 217.5,282.833 217.5,284.167 217.5,285.5 Z"/></g>
<g><path style="opacity:1" fill="#504600" d="M 100.5,279.5 C 101.404,280.209 101.737,281.209 101.5,282.5C 103.735,282.205 105.735,282.539 107.5,283.5C 105.167,283.5 102.833,283.5 100.5,283.5C 100.5,282.167 100.5,280.833 100.5,279.5 Z"/></g>
<g><path style="opacity:1" fill="#f3e236" d="M 101.5,278.5 C 121.167,277.167 140.833,277.167 160.5,278.5C 154.833,278.5 149.167,278.5 143.5,278.5C 143.5,285.167 143.5,291.833 143.5,298.5C 143.167,298.5 142.833,298.5 142.5,298.5C 142.5,296.833 142.5,295.167 142.5,293.5C 138.351,294.08 134.684,293.414 131.5,291.5C 133.167,291.5 134.833,291.5 136.5,291.5C 137.461,289.735 137.795,287.735 137.5,285.5C 135.167,285.5 132.833,285.5 130.5,285.5C 130.5,284.5 130.5,283.5 130.5,282.5C 134.167,282.5 137.833,282.5 141.5,282.5C 141.5,281.167 141.5,279.833 141.5,278.5C 135.5,278.5 129.5,278.5 123.5,278.5C 122.509,284.979 122.176,291.646 122.5,298.5C 121.514,294.03 121.181,289.363 121.5,284.5C 119.833,284.5 118.167,284.5 116.5,284.5C 116.5,289.833 116.5,295.167 116.5,300.5C 113.813,300.664 111.146,300.497 108.5,300C 107.944,299.617 107.611,299.117 107.5,298.5C 110.167,298.5 112.833,298.5 115.5,298.5C 115.5,293.5 115.5,288.5 115.5,283.5C 117.5,283.5 119.5,283.5 121.5,283.5C 121.5,281.833 121.5,280.167 121.5,278.5C 114.833,278.5 108.167,278.5 101.5,278.5 Z"/></g>
<g><path style="opacity:1" fill="#060300" d="M 123.5,278.5 C 129.5,278.5 135.5,278.5 141.5,278.5C 141.5,279.833 141.5,281.167 141.5,282.5C 137.833,282.5 134.167,282.5 130.5,282.5C 130.5,283.5 130.5,284.5 130.5,285.5C 132.265,286.461 134.265,286.795 136.5,286.5C 136.5,288.167 136.5,289.833 136.5,291.5C 134.833,291.5 133.167,291.5 131.5,291.5C 130.596,292.209 130.263,293.209 130.5,294.5C 134.167,294.5 137.833,294.5 141.5,294.5C 141.5,295.833 141.5,297.167 141.5,298.5C 135.5,298.5 129.5,298.5 123.5,298.5C 123.5,291.833 123.5,285.167 123.5,278.5 Z"/></g>
<g><path style="opacity:1" fill="#f8e655" d="M 498.5,267.5 C 498.097,280.47 496.43,293.137 493.5,305.5C 493.836,292.523 495.502,279.856 498.5,267.5 Z"/></g>
<g><path style="opacity:1" fill="#eee643" d="M 151.5,282.5 C 153.665,282.116 155.332,282.783 156.5,284.5C 155.332,286.217 153.665,286.884 151.5,286.5C 151.5,285.167 151.5,283.833 151.5,282.5 Z"/></g>
<g><path style="opacity:1" fill="#655905" d="M 237.5,282.5 C 237.5,282.833 237.5,283.167 237.5,283.5C 234.102,283.18 230.768,283.513 227.5,284.5C 229.969,285.168 232.302,285.835 234.5,286.5C 231.833,286.5 229.167,286.5 226.5,286.5C 226.5,285.167 226.5,283.833 226.5,282.5C 230.167,282.5 233.833,282.5 237.5,282.5 Z"/></g>
<g><path style="opacity:1" fill="#d4ca37" d="M 328.5,283.5 C 330.833,283.5 333.167,283.5 335.5,283.5C 335.5,284.5 335.5,285.5 335.5,286.5C 333.167,286.5 330.833,286.5 328.5,286.5C 328.5,285.5 328.5,284.5 328.5,283.5 Z"/></g>
<g><path style="opacity:1" fill="#080401" d="M 438.5,283.5 C 439.747,286.799 439.747,290.133 438.5,293.5C 435.319,297.792 430.985,299.792 425.5,299.5C 417.293,296.434 414.793,290.767 418,282.5C 425.34,275.683 432.173,276.016 438.5,283.5 Z"/></g>
<g><path style="opacity:1" fill="#7f7835" d="M 440.5,278.5 C 440.5,285.167 440.5,291.833 440.5,298.5C 439.833,296.833 439.167,295.167 438.5,293.5C 439.747,290.133 439.747,286.799 438.5,283.5C 439.167,281.833 439.833,280.167 440.5,278.5 Z"/></g>
<g><path style="opacity:1" fill="#ead822" d="M 204.5,282.5 C 209.776,283.293 211.609,286.293 210,291.5C 205.873,295.676 203.373,294.676 202.5,288.5C 202.977,286.403 203.643,284.403 204.5,282.5 Z"/></g>
<g><path style="opacity:1" fill="#8f8412" d="M 219.5,278.5 C 219.5,285.167 219.5,291.833 219.5,298.5C 221.833,298.5 224.167,298.5 226.5,298.5C 224.052,299.473 221.385,299.806 218.5,299.5C 218.806,296.615 218.473,293.948 217.5,291.5C 217.5,289.5 217.5,287.5 217.5,285.5C 218.167,283.167 218.833,280.833 219.5,278.5 Z"/></g>
<g><path style="opacity:1" fill="#544902" d="M 130.5,285.5 C 132.833,285.5 135.167,285.5 137.5,285.5C 137.795,287.735 137.461,289.735 136.5,291.5C 136.5,289.833 136.5,288.167 136.5,286.5C 134.265,286.795 132.265,286.461 130.5,285.5 Z"/></g>
<g><path style="opacity:1" fill="#80760f" d="M 399.5,283.5 C 399.5,288.5 399.5,293.5 399.5,298.5C 396.833,299.833 394.167,299.833 391.5,298.5C 393.833,298.5 396.167,298.5 398.5,298.5C 398.179,293.305 398.513,288.305 399.5,283.5 Z"/></g>
<g><path style="opacity:1" fill="#0b0500" d="M 406.5,278.5 C 409.167,278.5 411.833,278.5 414.5,278.5C 414.5,285.167 414.5,291.833 414.5,298.5C 411.833,298.5 409.167,298.5 406.5,298.5C 406.5,291.833 406.5,285.167 406.5,278.5 Z"/></g>
<g><path style="opacity:1" fill="#ecd925" d="M 425.5,282.5 C 428.238,281.965 430.072,282.965 431,285.5C 431.495,288.531 431.329,291.531 430.5,294.5C 426.078,295.021 423.745,293.021 423.5,288.5C 424.172,286.47 424.838,284.47 425.5,282.5 Z"/></g>
<g><path style="opacity:1" fill="#f6e64c" d="M -0.5,267.5 C 0.495904,267.414 1.32924,267.748 2,268.5C 3.16154,281.792 4.8282,295.126 7,308.5C 9.20878,311.789 10.0421,315.456 9.5,319.5C 7.55888,315.446 6.05888,311.112 5,306.5C 2.728,294.09 0.894662,281.757 -0.5,269.5C -0.5,268.833 -0.5,268.167 -0.5,267.5 Z"/></g>
<g><path style="opacity:1" fill="#0b0601" d="M 83.5,298.5 C 82.7387,297.609 81.7387,296.942 80.5,296.5C 78.1192,298.392 75.4525,298.892 72.5,298C 71.4552,296.474 69.9552,295.641 68,295.5C 64.8775,297.369 61.3775,298.369 57.5,298.5C 59.5284,291.716 61.8617,285.049 64.5,278.5C 67.2469,278.187 69.9135,278.52 72.5,279.5C 75.1017,283.904 77.1017,288.571 78.5,293.5C 80.3797,293.771 81.713,293.104 82.5,291.5C 84.7915,292.891 87.2915,293.891 90,294.5C 91.6624,294.612 92.8291,293.946 93.5,292.5C 89.7258,291.774 86.0591,290.774 82.5,289.5C 79.2917,285.285 79.9584,281.785 84.5,279C 90.2545,276.458 95.2545,277.458 99.5,282C 95.9321,283.185 92.2654,283.685 88.5,283.5C 88.7093,284.086 89.0426,284.586 89.5,285C 97.2679,284.595 100.601,288.095 99.5,295.5C 94.7888,299.508 89.4555,300.508 83.5,298.5 Z"/></g>
<g><path style="opacity:1" fill="#b1a42a" d="M 164.5,281.5 C 165.167,281.5 165.833,281.5 166.5,281.5C 166.448,283.903 166.781,286.236 167.5,288.5C 165.784,288.629 164.117,288.962 162.5,289.5C 164.051,287.087 164.717,284.421 164.5,281.5 Z"/></g>
<g><path style="opacity:1" fill="#736e36" d="M 67.5,287.5 C 69.0878,288.635 69.4212,289.969 68.5,291.5C 66.3576,290.563 66.0243,289.23 67.5,287.5 Z"/></g>
<g><path style="opacity:1" fill="#e0cf28" d="M 167.5,288.5 C 168.627,289.122 169.627,289.955 170.5,291C 173.451,291.096 176.118,291.929 178.5,293.5C 174.876,295.035 171.709,294.368 169,291.5C 167.229,292.304 165.729,293.471 164.5,295C 169.243,298.534 174.576,300.034 180.5,299.5C 178.527,300.163 176.361,300.496 174,300.5C 168.321,299.09 162.821,298.423 157.5,298.5C 159.5,298.5 161.5,298.5 163.5,298.5C 163.604,295.91 162.937,293.577 161.5,291.5C 161.543,290.584 161.876,289.917 162.5,289.5C 164.117,288.962 165.784,288.629 167.5,288.5 Z"/></g>
<g><path style="opacity:1" fill="#716222" d="M 350.5,287.5 C 352.121,287.787 353.121,288.787 353.5,290.5C 352.167,291.833 350.833,291.833 349.5,290.5C 350.127,289.583 350.461,288.583 350.5,287.5 Z"/></g>
<g><path style="opacity:1" fill="#0c0701" d="M 254.5,299.5 C 251.574,297.916 248.908,295.916 246.5,293.5C 245.026,289.512 245.359,285.679 247.5,282C 254.812,275.615 261.478,276.115 267.5,283.5C 266.562,284.553 265.395,285.22 264,285.5C 262.28,284.277 260.447,283.277 258.5,282.5C 257.446,282.68 256.446,283.013 255.5,283.5C 254.167,286.833 254.167,290.167 255.5,293.5C 258.754,294.81 261.254,293.81 263,290.5C 264.509,291.09 266.009,291.756 267.5,292.5C 264.887,297.903 260.554,300.236 254.5,299.5 Z"/></g>
<g><path style="opacity:1" fill="#ead826" d="M 277.5,282.5 C 279.722,282.178 281.556,282.845 283,284.5C 283.667,287.167 283.667,289.833 283,292.5C 280.679,295.033 278.679,294.699 277,291.5C 276.366,288.445 276.532,285.445 277.5,282.5 Z"/></g>
<g><path style="opacity:1" fill="#d8ca2b" d="M 342.5,281.5 C 343.161,282.718 343.828,284.051 344.5,285.5C 345.183,285.137 345.85,284.804 346.5,284.5C 345.39,288.532 343.723,292.198 341.5,295.5C 341.5,294.5 341.5,293.5 341.5,292.5C 337.5,292.5 333.5,292.5 329.5,292.5C 329.795,294.735 329.461,296.735 328.5,298.5C 328.5,296.167 328.5,293.833 328.5,291.5C 332.182,291.665 335.848,291.499 339.5,291C 342.186,288.454 343.186,285.287 342.5,281.5 Z"/></g>
<g><path style="opacity:1" fill="#c2ba36" d="M 82.5,289.5 C 86.0591,290.774 89.7258,291.774 93.5,292.5C 92.8291,293.946 91.6624,294.612 90,294.5C 87.2915,293.891 84.7915,292.891 82.5,291.5C 82.5,290.833 82.5,290.167 82.5,289.5 Z"/></g>
<g><path style="opacity:1" fill="#0c0701" d="M 180.5,299.5 C 174.576,300.034 169.243,298.534 164.5,295C 165.729,293.471 167.229,292.304 169,291.5C 171.709,294.368 174.876,295.035 178.5,293.5C 176.118,291.929 173.451,291.096 170.5,291C 169.627,289.955 168.627,289.122 167.5,288.5C 166.781,286.236 166.448,283.903 166.5,281.5C 172.869,276.186 179.203,276.353 185.5,282C 184.335,283.084 183.002,283.917 181.5,284.5C 178.977,282.592 176.31,282.259 173.5,283.5C 176.202,285.347 179.202,286.513 182.5,287C 188.004,292.153 187.337,296.319 180.5,299.5 Z"/></g>
<g><path style="opacity:1" fill="#a5980a" d="M 384.5,283.5 C 386.607,282.532 388.941,282.198 391.5,282.5C 391.5,287.833 391.5,293.167 391.5,298.5C 390.513,293.695 390.179,288.695 390.5,283.5C 388.5,283.5 386.5,283.5 384.5,283.5 Z"/></g>
<g><path style="opacity:1" fill="#8e8325" d="M 38.5,291.5 C 37.8333,293.833 37.1667,296.167 36.5,298.5C 36.1826,295.428 36.5159,292.428 37.5,289.5C 38.2975,289.957 38.6309,290.624 38.5,291.5 Z"/></g>
<g><path style="opacity:1" fill="#8f8419" d="M 123.5,278.5 C 123.5,285.167 123.5,291.833 123.5,298.5C 129.5,298.5 135.5,298.5 141.5,298.5C 141.5,297.167 141.5,295.833 141.5,294.5C 137.833,294.5 134.167,294.5 130.5,294.5C 130.263,293.209 130.596,292.209 131.5,291.5C 134.684,293.414 138.351,294.08 142.5,293.5C 142.5,295.167 142.5,296.833 142.5,298.5C 135.833,299.833 129.167,299.833 122.5,298.5C 122.176,291.646 122.509,284.979 123.5,278.5 Z"/></g>
<g><path style="opacity:1" fill="#968c1c" d="M 151.5,291.5 C 151.5,294.167 151.5,296.833 151.5,299.5C 148.615,299.806 145.948,299.473 143.5,298.5C 145.833,298.5 148.167,298.5 150.5,298.5C 150.198,295.941 150.532,293.607 151.5,291.5 Z"/></g>
<g><path style="opacity:1" fill="#d4c42d" d="M 321.5,278.5 C 321.5,285.167 321.5,291.833 321.5,298.5C 323.833,298.5 326.167,298.5 328.5,298.5C 323.841,299.37 319.008,300.036 314,300.5C 312.564,300.441 311.231,300.108 310,299.5C 309.667,300.167 309.333,300.833 309,301.5C 303.743,300.454 298.577,299.454 293.5,298.5C 295.5,298.5 297.5,298.5 299.5,298.5C 299.236,285.387 300.236,285.387 302.5,298.5C 304.604,298.799 306.604,298.466 308.5,297.5C 309.074,294.823 309.741,292.157 310.5,289.5C 311.484,292.428 311.817,295.428 311.5,298.5C 313.833,298.5 316.167,298.5 318.5,298.5C 318.5,292.167 318.5,285.833 318.5,279.5C 319.609,279.443 320.609,279.11 321.5,278.5 Z"/></g>
<g><path style="opacity:1" fill="#dfcf26" d="M 56.5,298.5 C 56.3893,299.117 56.056,299.617 55.5,300C 53.236,300.236 51.0693,300.736 49,301.5C 48.5814,300.328 47.9147,299.328 47,298.5C 42.9083,299.346 38.7416,300.012 34.5,300.5C 32.9704,300.36 31.9704,299.693 31.5,298.5C 33.1667,298.5 34.8333,298.5 36.5,298.5C 37.1667,296.167 37.8333,293.833 38.5,291.5C 38.9612,293.55 39.6279,295.55 40.5,297.5C 42.1667,298.833 43.8333,298.833 45.5,297.5C 46.6667,294.5 47.8333,291.5 49,288.5C 49.4983,291.817 49.665,295.15 49.5,298.5C 51.8333,298.5 54.1667,298.5 56.5,298.5 Z"/></g>
<g><path style="opacity:1" fill="#f6e647" d="M 12.5,328.5 C 16.4047,336.054 20.238,344.388 24,353.5C 24.4955,355.473 24.6621,357.473 24.5,359.5C 18.9633,349.911 14.9633,339.578 12.5,328.5 Z"/></g>
<g><path style="opacity:1" fill="#f8e74d" d="M 368.5,469.5 C 361.563,474.467 353.896,478.134 345.5,480.5C 346.234,479.292 346.567,477.959 346.5,476.5C 348.527,476.662 350.527,476.495 352.5,476C 351.549,475.282 351.383,474.449 352,473.5C 353.062,474.097 354.228,474.43 355.5,474.5C 357.535,473.796 359.535,473.129 361.5,472.5C 361.5,471.5 361.5,470.5 361.5,469.5C 364.005,468.583 366.338,468.583 368.5,469.5 Z"/></g>
<g><path style="opacity:1" fill="#f9e755" d="M 330.5,485.5 C 320.749,490.191 310.416,493.191 299.5,494.5C 306.247,491.98 313.247,489.813 320.5,488C 320.167,487.667 319.833,487.333 319.5,487C 323.191,486.58 326.858,486.08 330.5,485.5 Z"/></g>
</svg>
